<mxfile host="app.diagrams.net" modified="2022-06-14T06:05:40.937Z" agent="5.0 (Macintosh; Intel Mac OS X 10_15_7) AppleWebKit/537.36 (KHTML, like Gecko) Chrome/102.0.0.0 Safari/537.36" etag="IlqA-SeC8YVzTLBzzSji" version="20.0.1" type="github">
  <diagram id="6a731a19-8d31-9384-78a2-239565b7b9f0" name="Page-1">
    <mxGraphModel dx="3515" dy="1730" grid="1" gridSize="10" guides="1" tooltips="1" connect="1" arrows="1" fold="1" page="1" pageScale="1" pageWidth="1169" pageHeight="827" background="none" math="0" shadow="0">
      <root>
        <mxCell id="0" />
        <mxCell id="1" parent="0" />
        <mxCell id="1350" value="Experiments" style="ellipse;whiteSpace=wrap;html=1;shadow=0;fontFamily=Helvetica;fontSize=20;fontColor=#FFFFFF;align=center;strokeWidth=3;fillColor=#1699D3;strokeColor=none;aspect=fixed;" parent="1" vertex="1">
          <mxGeometry x="750.0000000000018" y="490" width="170" height="170" as="geometry" />
        </mxCell>
        <mxCell id="1351" value="Fairness in Medical Image Analysis" style="ellipse;whiteSpace=wrap;html=1;shadow=0;fontFamily=Helvetica;fontSize=20;fontColor=#FFFFFF;align=center;strokeWidth=3;fillColor=#F08705;strokeColor=none;gradientColor=none;aspect=fixed;" parent="1" vertex="1">
          <mxGeometry x="1450.0000000000018" y="390" width="170" height="170" as="geometry" />
        </mxCell>
        <mxCell id="1352" value="Fairness in Deep Learning" style="ellipse;whiteSpace=wrap;html=1;shadow=0;fontFamily=Helvetica;fontSize=20;fontColor=#FFFFFF;align=center;strokeWidth=3;fillColor=#E85642;strokeColor=none;aspect=fixed;" parent="1" vertex="1">
          <mxGeometry x="1590.0000000000018" y="720" width="170" height="170" as="geometry" />
        </mxCell>
        <mxCell id="1353" value="Concepts of Fairness" style="ellipse;whiteSpace=wrap;html=1;shadow=0;fontFamily=Helvetica;fontSize=20;fontColor=#FFFFFF;align=center;strokeWidth=3;fillColor=#1699D3;strokeColor=none;aspect=fixed;" parent="1" vertex="1">
          <mxGeometry x="1460.0000000000018" y="1050" width="170" height="170" as="geometry" />
        </mxCell>
        <mxCell id="1354" value="Introduction" style="ellipse;whiteSpace=wrap;html=1;shadow=0;fontFamily=Helvetica;fontSize=20;fontColor=#FFFFFF;align=center;strokeWidth=3;fillColor=#2CA851;strokeColor=none;aspect=fixed;" parent="1" vertex="1">
          <mxGeometry x="1170.0000000000018" y="1250" width="170" height="170" as="geometry" />
        </mxCell>
        <mxCell id="1359" style="endArrow=none;strokeWidth=6;strokeColor=#1699D3;html=1;noEdgeStyle=1;edgeStyle=orthogonalEdgeStyle;" parent="1" source="1515" target="1350" edge="1">
          <mxGeometry relative="1" as="geometry">
            <Array as="points" />
          </mxGeometry>
        </mxCell>
        <mxCell id="1360" style="endArrow=none;strokeWidth=6;strokeColor=#f08705;html=1;noEdgeStyle=1;edgeStyle=orthogonalEdgeStyle;" parent="1" source="1515" target="1351" edge="1">
          <mxGeometry relative="1" as="geometry">
            <Array as="points" />
          </mxGeometry>
        </mxCell>
        <mxCell id="1361" style="endArrow=none;strokeWidth=6;strokeColor=#E85642;html=1;noEdgeStyle=1;edgeStyle=orthogonalEdgeStyle;" parent="1" source="1515" target="1352" edge="1">
          <mxGeometry relative="1" as="geometry">
            <Array as="points" />
          </mxGeometry>
        </mxCell>
        <mxCell id="1362" style="endArrow=none;strokeWidth=6;strokeColor=#1699D3;html=1;noEdgeStyle=1;edgeStyle=orthogonalEdgeStyle;" parent="1" source="1515" target="1353" edge="1">
          <mxGeometry relative="1" as="geometry">
            <Array as="points" />
          </mxGeometry>
        </mxCell>
        <mxCell id="1363" style="endArrow=none;strokeWidth=6;strokeColor=#736CA8;html=1;noEdgeStyle=1;edgeStyle=orthogonalEdgeStyle;" parent="1" source="1515" target="1516" edge="1">
          <mxGeometry relative="1" as="geometry">
            <Array as="points" />
          </mxGeometry>
        </mxCell>
        <mxCell id="1364" style="endArrow=none;strokeWidth=6;strokeColor=#736ca8;html=1;noEdgeStyle=1;edgeStyle=orthogonalEdgeStyle;" parent="1" source="1515" target="1354" edge="1">
          <mxGeometry relative="1" as="geometry">
            <Array as="points" />
          </mxGeometry>
        </mxCell>
        <mxCell id="1376" value="Unfairness Mitigation" style="rounded=1;fillColor=#64BBE2;strokeColor=none;strokeWidth=3;shadow=0;html=1;fontColor=#FFFFFF;fontSize=15;" parent="1" vertex="1">
          <mxGeometry x="750.0000000000018" y="270" width="250" height="60" as="geometry" />
        </mxCell>
        <mxCell id="1377" value="" style="edgeStyle=orthogonalEdgeStyle;endArrow=none;strokeWidth=3;strokeColor=#64BBE2;html=1;noEdgeStyle=1;" parent="1" source="1350" target="1376" edge="1">
          <mxGeometry x="244" y="953" width="100" height="100" as="geometry">
            <mxPoint x="244" y="1053" as="sourcePoint" />
            <mxPoint x="344" y="953" as="targetPoint" />
            <Array as="points" />
          </mxGeometry>
        </mxCell>
        <mxCell id="1384" value="" style="edgeStyle=orthogonalEdgeStyle;endArrow=none;strokeWidth=3;strokeColor=#64BBE2;html=1;noEdgeStyle=1;" parent="1" source="1350" target="1372" edge="1">
          <mxGeometry x="244" y="953" width="100" height="100" as="geometry">
            <mxPoint x="244" y="1053" as="sourcePoint" />
            <mxPoint x="344" y="953" as="targetPoint" />
            <Array as="points" />
          </mxGeometry>
        </mxCell>
        <mxCell id="1386" value="" style="edgeStyle=orthogonalEdgeStyle;endArrow=none;strokeWidth=3;strokeColor=#64BBE2;html=1;noEdgeStyle=1;" parent="1" source="1350" target="1374" edge="1">
          <mxGeometry x="244" y="953" width="100" height="100" as="geometry">
            <mxPoint x="244" y="1053" as="sourcePoint" />
            <mxPoint x="344" y="953" as="targetPoint" />
            <Array as="points" />
          </mxGeometry>
        </mxCell>
        <mxCell id="1387" value="" style="edgeStyle=orthogonalEdgeStyle;endArrow=none;strokeWidth=3;strokeColor=#64BBE2;html=1;noEdgeStyle=1;" parent="1" source="1350" target="1375" edge="1">
          <mxGeometry x="244" y="953" width="100" height="100" as="geometry">
            <mxPoint x="244" y="1053" as="sourcePoint" />
            <mxPoint x="344" y="953" as="targetPoint" />
            <Array as="points" />
          </mxGeometry>
        </mxCell>
        <mxCell id="1399" value="" style="edgeStyle=orthogonalEdgeStyle;endArrow=none;strokeWidth=3;strokeColor=#F5AF58;html=1;noEdgeStyle=1;" parent="1" source="1351" target="1357" edge="1">
          <mxGeometry x="502" y="1063" width="100" height="100" as="geometry">
            <mxPoint x="502" y="1163" as="sourcePoint" />
            <mxPoint x="602" y="1063" as="targetPoint" />
            <Array as="points" />
          </mxGeometry>
        </mxCell>
        <mxCell id="1400" value="" style="edgeStyle=orthogonalEdgeStyle;endArrow=none;strokeWidth=3;strokeColor=#F5AF58;html=1;noEdgeStyle=1;" parent="1" source="1351" target="1388" edge="1">
          <mxGeometry x="502" y="1063" width="100" height="100" as="geometry">
            <mxPoint x="502" y="1163" as="sourcePoint" />
            <mxPoint x="602" y="1063" as="targetPoint" />
            <Array as="points" />
          </mxGeometry>
        </mxCell>
        <mxCell id="1429" value="" style="edgeStyle=orthogonalEdgeStyle;endArrow=none;strokeWidth=3;strokeColor=#F08E81;html=1;noEdgeStyle=1;" parent="1" source="1352" target="1418" edge="1">
          <mxGeometry x="172.5" y="519.5" width="100" height="100" as="geometry">
            <mxPoint x="172.5" y="619.5" as="sourcePoint" />
            <mxPoint x="272.5" y="519.5" as="targetPoint" />
            <Array as="points" />
          </mxGeometry>
        </mxCell>
        <mxCell id="1430" value="" style="edgeStyle=orthogonalEdgeStyle;endArrow=none;strokeWidth=3;strokeColor=#F08E81;html=1;noEdgeStyle=1;" parent="1" source="1352" target="1419" edge="1">
          <mxGeometry x="172.5" y="519.5" width="100" height="100" as="geometry">
            <mxPoint x="172.5" y="619.5" as="sourcePoint" />
            <mxPoint x="272.5" y="519.5" as="targetPoint" />
            <Array as="points" />
          </mxGeometry>
        </mxCell>
        <mxCell id="1431" value="" style="edgeStyle=orthogonalEdgeStyle;endArrow=none;strokeWidth=3;strokeColor=#F08E81;html=1;noEdgeStyle=1;" parent="1" source="1352" target="1412" edge="1">
          <mxGeometry x="172.5" y="519.5" width="100" height="100" as="geometry">
            <mxPoint x="172.5" y="619.5" as="sourcePoint" />
            <mxPoint x="272.5" y="519.5" as="targetPoint" />
            <Array as="points" />
          </mxGeometry>
        </mxCell>
        <mxCell id="1449" value="" style="edgeStyle=orthogonalEdgeStyle;endArrow=none;strokeWidth=3;strokeColor=#64BBE2;html=1;noEdgeStyle=1;" parent="1" source="1353" target="1438" edge="1">
          <mxGeometry x="-488" y="-307" width="100" height="100" as="geometry">
            <mxPoint x="-488" y="-207" as="sourcePoint" />
            <mxPoint x="-388" y="-307" as="targetPoint" />
            <Array as="points" />
          </mxGeometry>
        </mxCell>
        <mxCell id="1450" value="" style="edgeStyle=orthogonalEdgeStyle;endArrow=none;strokeWidth=3;strokeColor=#64BBE2;html=1;noEdgeStyle=1;" parent="1" source="1353" target="1439" edge="1">
          <mxGeometry x="-488" y="-307" width="100" height="100" as="geometry">
            <mxPoint x="-488" y="-207" as="sourcePoint" />
            <mxPoint x="-388" y="-307" as="targetPoint" />
            <Array as="points" />
          </mxGeometry>
        </mxCell>
        <mxCell id="1451" value="" style="edgeStyle=orthogonalEdgeStyle;endArrow=none;strokeWidth=3;strokeColor=#64BBE2;html=1;noEdgeStyle=1;" parent="1" source="1353" target="1440" edge="1">
          <mxGeometry x="-488" y="-307" width="100" height="100" as="geometry">
            <mxPoint x="-488" y="-207" as="sourcePoint" />
            <mxPoint x="-388" y="-307" as="targetPoint" />
            <Array as="points" />
          </mxGeometry>
        </mxCell>
        <mxCell id="1452" value="" style="edgeStyle=orthogonalEdgeStyle;endArrow=none;strokeWidth=3;strokeColor=#64BBE2;html=1;noEdgeStyle=1;" parent="1" source="1353" target="1442" edge="1">
          <mxGeometry x="-488" y="-307" width="100" height="100" as="geometry">
            <mxPoint x="-488" y="-207" as="sourcePoint" />
            <mxPoint x="-388" y="-307" as="targetPoint" />
            <Array as="points" />
          </mxGeometry>
        </mxCell>
        <mxCell id="1453" value="" style="edgeStyle=orthogonalEdgeStyle;endArrow=none;strokeWidth=3;strokeColor=#64BBE2;html=1;noEdgeStyle=1;" parent="1" source="1353" target="1441" edge="1">
          <mxGeometry x="-488" y="-307" width="100" height="100" as="geometry">
            <mxPoint x="-488" y="-207" as="sourcePoint" />
            <mxPoint x="-388" y="-307" as="targetPoint" />
            <Array as="points" />
          </mxGeometry>
        </mxCell>
        <mxCell id="1465" value="" style="edgeStyle=orthogonalEdgeStyle;endArrow=none;strokeWidth=3;strokeColor=#2CA851;html=1;noEdgeStyle=1;" parent="1" source="1354" target="1458" edge="1">
          <mxGeometry x="340" y="-990.5" width="100" height="100" as="geometry">
            <mxPoint x="340" y="-890.5" as="sourcePoint" />
            <mxPoint x="440" y="-990.5" as="targetPoint" />
            <Array as="points" />
          </mxGeometry>
        </mxCell>
        <mxCell id="1466" value="" style="edgeStyle=orthogonalEdgeStyle;endArrow=none;strokeWidth=3;strokeColor=#2CA851;html=1;noEdgeStyle=1;" parent="1" source="1354" target="1462" edge="1">
          <mxGeometry x="340" y="-990.5" width="100" height="100" as="geometry">
            <mxPoint x="340" y="-890.5" as="sourcePoint" />
            <mxPoint x="440" y="-990.5" as="targetPoint" />
            <Array as="points" />
          </mxGeometry>
        </mxCell>
        <mxCell id="1514" style="edgeStyle=orthogonalEdgeStyle;rounded=0;html=1;exitX=0.75;exitY=0;entryX=0.75;entryY=0;startArrow=none;startFill=0;endArrow=block;endFill=1;jettySize=auto;orthogonalLoop=1;strokeColor=#12aab5;strokeWidth=6;fontSize=20;fontColor=#2F5B7C;" parent="1" edge="1">
          <mxGeometry relative="1" as="geometry">
            <mxPoint x="1752.5" y="784.5" as="sourcePoint" />
            <mxPoint x="1752.5" y="784.5" as="targetPoint" />
          </mxGeometry>
        </mxCell>
        <mxCell id="1515" value="Fairness in Medical Image Analysis" style="ellipse;whiteSpace=wrap;html=1;shadow=0;fontFamily=Helvetica;fontSize=30;fontColor=#2F5B7C;align=center;strokeColor=#2F5B7C;strokeWidth=6;fillColor=#FFFFFF;fontStyle=1;gradientColor=none;" parent="1" vertex="1">
          <mxGeometry x="1100.0000000000018" y="680" width="270" height="270" as="geometry" />
        </mxCell>
        <mxCell id="1516" value="Opportunities and Challenges" style="ellipse;whiteSpace=wrap;html=1;shadow=0;fontFamily=Helvetica;fontSize=20;fontColor=#FFFFFF;align=center;strokeWidth=3;fillColor=#736ca8;strokeColor=none;aspect=fixed;" parent="1" vertex="1">
          <mxGeometry x="860.0000000000018" y="1080" width="170" height="170" as="geometry" />
        </mxCell>
        <mxCell id="1532" value="" style="edgeStyle=orthogonalEdgeStyle;endArrow=none;strokeWidth=3;strokeColor=#A29DC5;html=1;noEdgeStyle=1;" parent="1" source="1516" target="1520" edge="1">
          <mxGeometry x="-1256" y="-290.5" width="100" height="100" as="geometry">
            <mxPoint x="-1256" y="-190.5" as="sourcePoint" />
            <mxPoint x="-1156" y="-290.5" as="targetPoint" />
            <Array as="points" />
          </mxGeometry>
        </mxCell>
        <mxCell id="1533" value="" style="edgeStyle=orthogonalEdgeStyle;endArrow=none;strokeWidth=3;strokeColor=#A29DC5;html=1;noEdgeStyle=1;" parent="1" source="1516" target="1521" edge="1">
          <mxGeometry x="-1256" y="-290.5" width="100" height="100" as="geometry">
            <mxPoint x="-1256" y="-190.5" as="sourcePoint" />
            <mxPoint x="-1156" y="-290.5" as="targetPoint" />
            <Array as="points" />
          </mxGeometry>
        </mxCell>
        <mxCell id="1536" value="" style="edgeStyle=orthogonalEdgeStyle;endArrow=none;strokeWidth=3;strokeColor=#A29DC5;html=1;noEdgeStyle=1;entryX=0.75;entryY=0;entryDx=0;entryDy=0;" parent="1" source="1516" target="1524" edge="1">
          <mxGeometry x="-1256" y="-290.5" width="100" height="100" as="geometry">
            <mxPoint x="-1256" y="-190.5" as="sourcePoint" />
            <mxPoint x="-1156" y="-290.5" as="targetPoint" />
            <Array as="points" />
          </mxGeometry>
        </mxCell>
        <mxCell id="iukZ_jMVCPaqPi5B6kwd-1551" value="" style="edgeStyle=none;endArrow=none;strokeWidth=3;strokeColor=#F5AF58;html=1;exitX=0.5;exitY=1;exitDx=0;exitDy=0;entryX=0;entryY=0;entryDx=0;entryDy=0;noEdgeStyle=1;" edge="1" parent="1" source="1390" target="1351">
          <mxGeometry x="512" y="1073" width="100" height="100" as="geometry">
            <mxPoint x="1614.6532594767104" y="1370.6451509302428" as="sourcePoint" />
            <mxPoint x="1542" y="1394.0526315789475" as="targetPoint" />
          </mxGeometry>
        </mxCell>
        <mxCell id="iukZ_jMVCPaqPi5B6kwd-1552" value="Post-processing" style="rounded=1;fillColor=#f5af58;strokeColor=none;strokeWidth=3;shadow=0;html=1;fontColor=#FFFFFF;fontSize=13;" vertex="1" parent="1">
          <mxGeometry x="1970.0000000000018" y="380" width="150" height="40" as="geometry" />
        </mxCell>
        <mxCell id="iukZ_jMVCPaqPi5B6kwd-1553" value="In-processing" style="rounded=1;fillColor=#f5af58;strokeColor=none;strokeWidth=3;shadow=0;html=1;fontColor=#FFFFFF;fontSize=13;" vertex="1" parent="1">
          <mxGeometry x="1580.0000000000018" y="80" width="150" height="40" as="geometry" />
        </mxCell>
        <mxCell id="iukZ_jMVCPaqPi5B6kwd-1554" value="Pre-processing" style="rounded=1;fillColor=#f5af58;strokeColor=none;strokeWidth=3;shadow=0;html=1;fontColor=#FFFFFF;fontSize=13;" vertex="1" parent="1">
          <mxGeometry x="1870.0000000000018" y="170" width="150" height="40" as="geometry" />
        </mxCell>
        <mxCell id="iukZ_jMVCPaqPi5B6kwd-1555" value="" style="edgeStyle=none;endArrow=none;strokeWidth=2;strokeColor=#F5AF58;html=1;exitX=0.5;exitY=1;exitDx=0;exitDy=0;entryX=0.25;entryY=0;entryDx=0;entryDy=0;noEdgeStyle=1;" edge="1" parent="1" source="iukZ_jMVCPaqPi5B6kwd-1553" target="1357">
          <mxGeometry x="512" y="1073" width="100" height="100" as="geometry">
            <mxPoint x="1727.2687729776349" y="1376.3530026666062" as="sourcePoint" />
            <mxPoint x="1814.5" y="1413" as="targetPoint" />
          </mxGeometry>
        </mxCell>
        <mxCell id="iukZ_jMVCPaqPi5B6kwd-1556" value="" style="edgeStyle=none;endArrow=none;strokeWidth=2;strokeColor=#F5AF58;html=1;exitX=0.25;exitY=0;exitDx=0;exitDy=0;entryX=1;entryY=1;entryDx=0;entryDy=0;noEdgeStyle=1;" edge="1" parent="1" source="iukZ_jMVCPaqPi5B6kwd-1552" target="1357">
          <mxGeometry x="522" y="1083" width="100" height="100" as="geometry">
            <mxPoint x="1737.2687729776349" y="1386.3530026666062" as="sourcePoint" />
            <mxPoint x="1824.5" y="1423" as="targetPoint" />
          </mxGeometry>
        </mxCell>
        <mxCell id="iukZ_jMVCPaqPi5B6kwd-1557" value="" style="edgeStyle=none;endArrow=none;strokeWidth=2;strokeColor=#F5AF58;html=1;exitX=0.25;exitY=1;exitDx=0;exitDy=0;entryX=0.75;entryY=0;entryDx=0;entryDy=0;noEdgeStyle=1;" edge="1" parent="1" source="iukZ_jMVCPaqPi5B6kwd-1554" target="1357">
          <mxGeometry x="532" y="1093" width="100" height="100" as="geometry">
            <mxPoint x="1747.2687729776349" y="1396.3530026666062" as="sourcePoint" />
            <mxPoint x="1834.5" y="1433" as="targetPoint" />
          </mxGeometry>
        </mxCell>
        <mxCell id="iukZ_jMVCPaqPi5B6kwd-1559" value="Segmentation" style="rounded=1;fillColor=#64BBE2;strokeColor=none;strokeWidth=3;shadow=0;html=1;fontColor=#FFFFFF;fontSize=13;" vertex="1" parent="1">
          <mxGeometry x="350.0000000000018" y="680" width="150" height="40" as="geometry" />
        </mxCell>
        <mxCell id="iukZ_jMVCPaqPi5B6kwd-1560" value="Detection" style="rounded=1;fillColor=#64BBE2;strokeColor=none;strokeWidth=3;shadow=0;html=1;fontColor=#FFFFFF;fontSize=13;" vertex="1" parent="1">
          <mxGeometry x="350.0000000000018" y="400" width="150" height="40" as="geometry" />
        </mxCell>
        <mxCell id="iukZ_jMVCPaqPi5B6kwd-1561" value="Classification" style="rounded=1;fillColor=#64BBE2;strokeColor=none;strokeWidth=3;shadow=0;html=1;fontColor=#FFFFFF;fontSize=13;" vertex="1" parent="1">
          <mxGeometry x="170.00000000000182" y="600" width="150" height="40" as="geometry" />
        </mxCell>
        <mxCell id="iukZ_jMVCPaqPi5B6kwd-1563" value="" style="edgeStyle=orthogonalEdgeStyle;endArrow=none;strokeWidth=2;strokeColor=#64BBE2;html=1;exitDx=0;exitDy=0;entryDx=0;entryDy=0;noEdgeStyle=1;" edge="1" parent="1" source="1375" target="iukZ_jMVCPaqPi5B6kwd-1561">
          <mxGeometry x="254" y="963" width="100" height="100" as="geometry">
            <mxPoint x="1132.2698427064197" y="1250.9125855426512" as="sourcePoint" />
            <mxPoint x="1202" y="1236.4366925064598" as="targetPoint" />
            <Array as="points" />
          </mxGeometry>
        </mxCell>
        <mxCell id="iukZ_jMVCPaqPi5B6kwd-1564" value="" style="edgeStyle=orthogonalEdgeStyle;endArrow=none;strokeWidth=2;strokeColor=#64BBE2;html=1;exitDx=0;exitDy=0;noEdgeStyle=1;" edge="1" parent="1" source="1375" target="iukZ_jMVCPaqPi5B6kwd-1560">
          <mxGeometry x="264" y="973" width="100" height="100" as="geometry">
            <mxPoint x="1142.2698427064197" y="1260.9125855426512" as="sourcePoint" />
            <mxPoint x="1212" y="1246.4366925064598" as="targetPoint" />
            <Array as="points" />
          </mxGeometry>
        </mxCell>
        <mxCell id="iukZ_jMVCPaqPi5B6kwd-1565" value="" style="edgeStyle=orthogonalEdgeStyle;endArrow=none;strokeWidth=2;strokeColor=#64BBE2;html=1;exitDx=0;exitDy=0;entryDx=0;entryDy=0;noEdgeStyle=1;" edge="1" parent="1" source="1375" target="iukZ_jMVCPaqPi5B6kwd-1559">
          <mxGeometry x="274" y="983" width="100" height="100" as="geometry">
            <mxPoint x="1152.2698427064197" y="1270.9125855426512" as="sourcePoint" />
            <mxPoint x="1222" y="1256.4366925064598" as="targetPoint" />
            <Array as="points" />
          </mxGeometry>
        </mxCell>
        <mxCell id="iukZ_jMVCPaqPi5B6kwd-1566" value="In-processing" style="rounded=1;fillColor=#64BBE2;strokeColor=none;strokeWidth=3;shadow=0;html=1;fontColor=#FFFFFF;fontSize=13;" vertex="1" parent="1">
          <mxGeometry x="780.0000000000018" y="50" width="150" height="40" as="geometry" />
        </mxCell>
        <mxCell id="iukZ_jMVCPaqPi5B6kwd-1567" value="Post-proceesing" style="rounded=1;fillColor=#64BBE2;strokeColor=none;strokeWidth=3;shadow=0;html=1;fontColor=#FFFFFF;fontSize=13;" vertex="1" parent="1">
          <mxGeometry x="509.0000000000018" y="150" width="150" height="40" as="geometry" />
        </mxCell>
        <mxCell id="iukZ_jMVCPaqPi5B6kwd-1568" value="Pre-processing" style="rounded=1;fillColor=#64BBE2;strokeColor=none;strokeWidth=3;shadow=0;html=1;fontColor=#FFFFFF;fontSize=13;" vertex="1" parent="1">
          <mxGeometry x="1010.0000000000018" y="120" width="150" height="40" as="geometry" />
        </mxCell>
        <mxCell id="iukZ_jMVCPaqPi5B6kwd-1569" value="" style="edgeStyle=orthogonalEdgeStyle;endArrow=none;strokeWidth=2;strokeColor=#64BBE2;html=1;exitDx=0;exitDy=0;entryDx=0;entryDy=0;entryPerimeter=0;noEdgeStyle=1;" edge="1" parent="1" source="1376" target="iukZ_jMVCPaqPi5B6kwd-1568">
          <mxGeometry x="49.5" y="879.67" width="100" height="100" as="geometry">
            <mxPoint x="811.3635969323868" y="1162.9953173515084" as="sourcePoint" />
            <mxPoint x="692" y="1128.4716528925624" as="targetPoint" />
            <Array as="points" />
          </mxGeometry>
        </mxCell>
        <mxCell id="iukZ_jMVCPaqPi5B6kwd-1570" value="" style="edgeStyle=orthogonalEdgeStyle;endArrow=none;strokeWidth=2;strokeColor=#64BBE2;html=1;entryDx=0;entryDy=0;exitDx=0;exitDy=0;noEdgeStyle=1;" edge="1" parent="1" source="1376" target="iukZ_jMVCPaqPi5B6kwd-1566">
          <mxGeometry x="264" y="973" width="100" height="100" as="geometry">
            <mxPoint x="1025.8635969323868" y="1256.3253173515084" as="sourcePoint" />
            <mxPoint x="906.5" y="1221.8016528925623" as="targetPoint" />
            <Array as="points" />
          </mxGeometry>
        </mxCell>
        <mxCell id="1357" value="Unfairness Mitigation" style="rounded=1;fillColor=#f5af58;strokeColor=none;strokeWidth=3;shadow=0;html=1;fontColor=#FFFFFF;fontSize=15;" parent="1" vertex="1">
          <mxGeometry x="1640.0000000000018" y="270" width="250" height="60" as="geometry" />
        </mxCell>
        <mxCell id="1372" value="Fairness &amp;amp; Data Imbalance" style="rounded=1;fillColor=#64BBE2;strokeColor=none;strokeWidth=3;shadow=0;html=1;fontColor=#FFFFFF;fontSize=15;" parent="1" vertex="1">
          <mxGeometry x="580.0000000000018" y="770" width="250" height="60" as="geometry" />
        </mxCell>
        <mxCell id="1374" value="Fairness &amp;amp; Data Augmentation" style="rounded=1;fillColor=#64BBE2;strokeColor=none;strokeWidth=3;shadow=0;html=1;fontColor=#FFFFFF;fontSize=15;" parent="1" vertex="1">
          <mxGeometry x="550.0000000000018" y="360" width="250" height="60" as="geometry" />
        </mxCell>
        <mxCell id="1375" value="Fairness Existance" style="rounded=1;fillColor=#64BBE2;strokeColor=none;strokeWidth=3;shadow=0;html=1;fontColor=#FFFFFF;fontSize=15;" parent="1" vertex="1">
          <mxGeometry x="400.0000000000018" y="540" width="250" height="60" as="geometry" />
        </mxCell>
        <mxCell id="1388" value="Fairness Evaluation" style="rounded=1;fillColor=#f5af58;strokeColor=none;strokeWidth=3;shadow=0;html=1;fontColor=#FFFFFF;fontSize=15;" parent="1" vertex="1">
          <mxGeometry x="1170.0000000000018" y="400" width="250" height="60" as="geometry" />
        </mxCell>
        <mxCell id="1390" value="Avaliable Datasets" style="rounded=1;fillColor=#f5af58;strokeColor=none;strokeWidth=3;shadow=0;html=1;fontColor=#FFFFFF;fontSize=15;" parent="1" vertex="1">
          <mxGeometry x="1300.0000000000018" y="220" width="250" height="60" as="geometry" />
        </mxCell>
        <mxCell id="1412" value="Fairness in Facial Recognition" style="rounded=1;fillColor=#f08e81;strokeColor=none;strokeWidth=3;shadow=0;html=1;fontColor=#FFFFFF;fontSize=15;" parent="1" vertex="1">
          <mxGeometry x="1810.0000000000018" y="730" width="250" height="60" as="geometry" />
        </mxCell>
        <mxCell id="1418" value="Fairness in Tabular Datasets" style="rounded=1;fillColor=#f08e81;strokeColor=none;strokeWidth=3;shadow=0;html=1;fontColor=#FFFFFF;fontSize=15;" parent="1" vertex="1">
          <mxGeometry x="1770.0000000000018" y="910" width="250" height="60" as="geometry" />
        </mxCell>
        <mxCell id="1419" value="Fairness in NLP" style="rounded=1;fillColor=#f08e81;strokeColor=none;strokeWidth=3;shadow=0;html=1;fontColor=#FFFFFF;fontSize=15;" parent="1" vertex="1">
          <mxGeometry x="1720.0000000000018" y="590" width="250" height="60" as="geometry" />
        </mxCell>
        <mxCell id="1438" value="Definition of Fairness" style="rounded=1;fillColor=#64BBE2;strokeColor=none;strokeWidth=3;shadow=0;html=1;fontColor=#FFFFFF;fontSize=13;" parent="1" vertex="1">
          <mxGeometry x="1700.0000000000018" y="1090" width="150" height="40" as="geometry" />
        </mxCell>
        <mxCell id="1439" value="Sensitive Attributes" style="rounded=1;fillColor=#64BBE2;strokeColor=none;strokeWidth=3;shadow=0;html=1;fontColor=#FFFFFF;fontSize=13;" parent="1" vertex="1">
          <mxGeometry x="1470.0000000000018" y="1360" width="150" height="40" as="geometry" />
        </mxCell>
        <mxCell id="1440" value="Similar Concepts&amp;nbsp;" style="rounded=1;fillColor=#64BBE2;strokeColor=none;strokeWidth=3;shadow=0;html=1;fontColor=#FFFFFF;fontSize=13;" parent="1" vertex="1">
          <mxGeometry x="1700.0000000000018" y="1230" width="150" height="40" as="geometry" />
        </mxCell>
        <mxCell id="1441" value="Unfairness Evaluation" style="rounded=1;fillColor=#64BBE2;strokeColor=none;strokeWidth=3;shadow=0;html=1;fontColor=#FFFFFF;fontSize=13;" parent="1" vertex="1">
          <mxGeometry x="1280.0000000000018" y="1130" width="150" height="40" as="geometry" />
        </mxCell>
        <mxCell id="1442" value="Source of Unfairness" style="rounded=1;fillColor=#64BBE2;strokeColor=none;strokeWidth=3;shadow=0;html=1;fontColor=#FFFFFF;fontSize=13;" parent="1" vertex="1">
          <mxGeometry x="1610.0000000000018" y="1330" width="150" height="40" as="geometry" />
        </mxCell>
        <mxCell id="1458" value="Aims and Scopes" style="rounded=1;fillColor=#2CA851;strokeColor=#2CA851;strokeWidth=3;shadow=0;html=1;fontColor=#FFFFFF;fontSize=15;" parent="1" vertex="1">
          <mxGeometry x="1230.0000000000018" y="1540" width="250" height="60" as="geometry" />
        </mxCell>
        <mxCell id="1462" value="Background" style="rounded=1;fillColor=#2CA851;strokeColor=#2CA851;strokeWidth=3;shadow=0;html=1;fontColor=#FFFFFF;fontSize=15;" parent="1" vertex="1">
          <mxGeometry x="960.0000000000018" y="1470" width="250" height="60" as="geometry" />
        </mxCell>
        <mxCell id="1520" value="Limitation of Dataset Size" style="rounded=1;fillColor=#a29dc5;strokeColor=none;strokeWidth=3;shadow=0;html=1;fontColor=#FFFFFF;fontSize=15;" parent="1" vertex="1">
          <mxGeometry x="580.0000000000018" y="1060" width="250" height="60" as="geometry" />
        </mxCell>
        <mxCell id="1521" value="Deficiency of Sensitive Attriobutes" style="rounded=1;fillColor=#a29dc5;strokeColor=none;strokeWidth=3;shadow=0;html=1;fontColor=#FFFFFF;fontSize=15;" parent="1" vertex="1">
          <mxGeometry x="600.0000000000018" y="1260" width="250" height="60" as="geometry" />
        </mxCell>
        <mxCell id="1524" value="Processing on&lt;br&gt;Continous Sensitve Attributes" style="rounded=1;fillColor=#a29dc5;strokeColor=none;strokeWidth=3;shadow=0;html=1;fontColor=#FFFFFF;fontSize=15;" parent="1" vertex="1">
          <mxGeometry x="760.0000000000018" y="1380" width="250" height="60" as="geometry" />
        </mxCell>
        <mxCell id="iukZ_jMVCPaqPi5B6kwd-1571" value="" style="edgeStyle=none;endArrow=none;strokeWidth=2;strokeColor=#64BBE2;html=1;entryX=0.25;entryY=0;entryDx=0;entryDy=0;exitX=0.5;exitY=1;exitDx=0;exitDy=0;noEdgeStyle=1;fontSize=15;" edge="1" parent="1" source="iukZ_jMVCPaqPi5B6kwd-1567" target="1376">
          <mxGeometry x="274" y="983" width="100" height="100" as="geometry">
            <mxPoint x="1035.8635969323868" y="1266.3253173515084" as="sourcePoint" />
            <mxPoint x="916.5" y="1231.8016528925623" as="targetPoint" />
          </mxGeometry>
        </mxCell>
      </root>
    </mxGraphModel>
  </diagram>
</mxfile>
